<svg xmlns="http://www.w3.org/2000/svg" version="1.1" xmlns:xlink="http://www.w3.org/1999/xlink" xmlns:svgjs="http://svgjs.com/svgjs" width="1440" height="250" preserveAspectRatio="none" viewBox="0 0 1440 250"><g mask="url(&quot;#SvgjsMask1009&quot;)" fill="none"><rect width="1440" height="250" x="0" y="0" fill="rgba(23, 113, 70, 1)"></rect><path d="M9 250L259 0L392.5 0L142.5 250z" fill="url(#SvgjsLinearGradient1010)"></path><path d="M278.6 250L528.6 0L719.1 0L469.1 250z" fill="url(#SvgjsLinearGradient1010)"></path><path d="M480.20000000000005 250L730.2 0L962.7 0L712.7 250z" fill="url(#SvgjsLinearGradient1010)"></path><path d="M757.8000000000001 250L1007.8000000000001 0L1208.8000000000002 0L958.8000000000001 250z" fill="url(#SvgjsLinearGradient1010)"></path><path d="M1419 250L1169 0L912.5 0L1162.5 250z" fill="url(#SvgjsLinearGradient1011)"></path><path d="M1184.4 250L934.4000000000001 0L767.9000000000001 0L1017.9000000000001 250z" fill="url(#SvgjsLinearGradient1011)"></path><path d="M937.8 250L687.8 0L342.79999999999995 0L592.8 250z" fill="url(#SvgjsLinearGradient1011)"></path><path d="M688.1999999999999 250L438.19999999999993 0L328.69999999999993 0L578.6999999999999 250z" fill="url(#SvgjsLinearGradient1011)"></path><path d="M1306.841019751339 250L1440 116.84101975133888L1440 250z" fill="url(#SvgjsLinearGradient1010)"></path><path d="M0 250L133.15898024866112 250L 0 116.84101975133888z" fill="url(#SvgjsLinearGradient1011)"></path></g><defs><mask id="SvgjsMask1009"><rect width="1440" height="250" fill="#ffffff"></rect></mask><linearGradient x1="0%" y1="100%" x2="100%" y2="0%" id="SvgjsLinearGradient1010"><stop stop-color="rgba(39, 190, 118, 1)" offset="0"></stop><stop stop-opacity="0" stop-color="rgba(39, 190, 118, 1)" offset="0.66"></stop></linearGradient><linearGradient x1="100%" y1="100%" x2="0%" y2="0%" id="SvgjsLinearGradient1011"><stop stop-color="rgba(39, 190, 118, 1)" offset="0"></stop><stop stop-opacity="0" stop-color="rgba(39, 190, 118, 1)" offset="0.66"></stop></linearGradient></defs></svg>